IBM Plex Sans Var-Bold.ufo
<glyph name="A" format="2">
	<advance width="685"/>
	<unicode hex="0041"/>
	<anchor x="339" y="0" name="bottom"/>
	<anchor x="666" y="0" name="bottomright"/>
	<anchor x="339" y="698" name="top"/>
	<outline>
		<contour>
			<point x="665" y="0" type="line" name="hr00"/>
			<point x="438" y="698" type="line"/>
			<point x="250" y="698" type="line"/>
			<point x="20" y="0" type="line"/>
			<point x="174" y="0" type="line"/>
			<point x="224" y="166" type="line"/>
			<point x="457" y="166" type="line"/>
			<point x="507" y="0" type="line"/>
		</contour>
		<contour>
			<point x="420" y="295" type="line"/>
			<point x="260" y="295" type="line"/>
			<point x="303" y="440" type="line"/>
			<point x="337" y="560" type="line"/>
			<point x="342" y="560" type="line"/>
			<point x="377" y="440" type="line"/>
		</contour>
	</outline>
</glyph>
<glyph name="I" format="2">
	<advance width="432"/>
	<unicode hex="0049"/>
	<anchor x="216" y="0" name="bottom"/>
	<anchor x="384" y="0" name="bottomright"/>
	<anchor x="216" y="698" name="top"/>
	<outline>
		<contour>
			<point x="382" y="0" type="line" name="hr00"/>
			<point x="382" y="121" type="line"/>
			<point x="292" y="121" type="line"/>
			<point x="292" y="577" type="line"/>
			<point x="382" y="577" type="line"/>
			<point x="382" y="698" type="line"/>
			<point x="50" y="698" type="line"/>
			<point x="50" y="577" type="line"/>
			<point x="140" y="577" type="line"/>
			<point x="140" y="121" type="line"/>
			<point x="50" y="121" type="line"/>
			<point x="50" y="0" type="line"/>
		</contour>
	</outline>
</glyph>
<glyph name="M" format="2">
	<advance width="819"/>
	<unicode hex="004D"/>
	<anchor x="409" y="0" name="bottom"/>
	<anchor x="409" y="698" name="top"/>
	<outline>
		<contour>
			<point x="77" y="0" type="line"/>
			<point x="220" y="0" type="line"/>
			<point x="220" y="350" type="line"/>
			<point x="220" y="465" type="line"/>
			<point x="223" y="465" type="line"/>
			<point x="276" y="355" type="line"/>
			<point x="409" y="109" type="line"/>
			<point x="545" y="356" type="line"/>
			<point x="596" y="458" type="line"/>
			<point x="599" y="458" type="line"/>
			<point x="599" y="350" type="line"/>
			<point x="599" y="0" type="line" name="hr00"/>
			<point x="742" y="0" type="line"/>
			<point x="742" y="698" type="line"/>
			<point x="580" y="698" type="line"/>
			<point x="488" y="520" type="line"/>
			<point x="411" y="371" type="line"/>
			<point x="409" y="371" type="line"/>
			<point x="331" y="520" type="line"/>
			<point x="238" y="698" type="line"/>
			<point x="77" y="698" type="line"/>
		</contour>
	</outline>
</glyph>
<glyph name="N" format="2">
	<advance width="724"/>
	<unicode hex="004E"/>
	<anchor x="361" y="0" name="bottom"/>
	<anchor x="361" y="698" name="top"/>
	<outline>
		<contour>
			<point x="481" y="0" type="line" name="hr00"/>
			<point x="647" y="0" type="line"/>
			<point x="647" y="698" type="line"/>
			<point x="504" y="698" type="line"/>
			<point x="504" y="374" type="line"/>
			<point x="504" y="228" type="line"/>
			<point x="501" y="228" type="line"/>
			<point x="434" y="368" type="line"/>
			<point x="243" y="698" type="line"/>
			<point x="77" y="698" type="line"/>
			<point x="77" y="0" type="line"/>
			<point x="220" y="0" type="line"/>
			<point x="220" y="324" type="line"/>
			<point x="220" y="470" type="line"/>
			<point x="223" y="470" type="line"/>
			<point x="290" y="330" type="line"/>
		</contour>
	</outline>
</glyph>
<glyph name="T" format="2">
	<advance width="584"/>
	<unicode hex="0054"/>
	<anchor x="292" y="0" name="bottom"/>
	<anchor x="292" y="698" name="top"/>
	<outline>
		<contour>
			<point x="557" y="563" type="line" name="hr00"/>
			<point x="557" y="698" type="line"/>
			<point x="27" y="698" type="line"/>
			<point x="27" y="563" type="line"/>
			<point x="216" y="563" type="line"/>
			<point x="216" y="0" type="line"/>
			<point x="368" y="0" type="line"/>
			<point x="368" y="563" type="line"/>
		</contour>
	</outline>
</glyph>
<glyph name="Z" format="2">
	<advance width="607"/>
	<unicode hex="005A"/>
	<anchor x="303" y="0" name="bottom"/>
	<anchor x="303" y="698" name="top"/>
	<outline>
		<contour>
			<point x="568" y="134" type="line" name="hr00"/>
			<point x="214" y="134" type="line"/>
			<point x="560" y="563" type="line"/>
			<point x="560" y="698" type="line"/>
			<point x="56" y="698" type="line"/>
			<point x="56" y="564" type="line"/>
			<point x="384" y="564" type="line"/>
			<point x="39" y="135" type="line"/>
			<point x="39" y="0" type="line"/>
			<point x="568" y="0" type="line"/>
		</contour>
	</outline>
</glyph>
<glyph name="x" format="2">
	<advance width="560"/>
	<unicode hex="0078"/>
	<anchor x="280" y="0" name="bottom"/>
	<anchor x="280" y="540" name="top"/>
	<outline>
		<contour>
			<point x="18" y="0" type="line"/>
			<point x="172" y="0" type="line" name="hr00"/>
			<point x="269" y="171" type="line"/>
			<point x="273" y="171" type="line"/>
			<point x="374" y="0" type="line"/>
			<point x="542" y="0" type="line"/>
			<point x="367" y="262" type="line"/>
			<point x="541" y="525" type="line"/>
			<point x="385" y="525" type="line"/>
			<point x="290" y="360" type="line"/>
			<point x="286" y="360" type="line"/>
			<point x="188" y="525" type="line"/>
			<point x="20" y="525" type="line"/>
			<point x="191" y="267" type="line"/>
		</contour>
	</outline>
</glyph>
<glyph name="macron" format="2">
	<advance width="600"/>
	<unicode hex="00AF"/>
	<anchor x="300" y="540" name="_top"/>
	<outline>
		<contour>
			<point x="147" y="624" type="line" name="hr00"/>
			<point x="453" y="624" type="line"/>
			<point x="453" y="727" type="line"/>
			<point x="147" y="727" type="line"/>
		</contour>
	</outline>
</glyph>
<glyph name="acute" format="2">
	<advance width="600"/>
	<unicode hex="00B4"/>
	<anchor x="300" y="540" name="_top"/>
	<outline>
		<contour>
			<point x="450" y="755" type="line" name="hr00"/>
			<point x="327" y="816" type="line"/>
			<point x="228" y="622" type="line"/>
			<point x="316" y="579" type="line"/>
		</contour>
	</outline>
</glyph>
<glyph name="dotlessi" format="2">
	<advance width="286"/>
	<unicode hex="0131"/>
	<anchor x="143" y="540" name="top"/>
	<outline>
		<contour>
			<point x="217" y="0" type="line" name="hr00"/>
			<point x="217" y="525" type="line"/>
			<point x="69" y="525" type="line"/>
			<point x="69" y="0" type="line"/>
		</contour>
	</outline>
</glyph>
<glyph name="Schwa" format="2">
	<advance width="714"/>
	<unicode hex="018F"/>
	<outline>
		<contour>
			<point x="50" y="399" type="line"/>
			<point x="50" y="349" type="line" smooth="yes" name="hr00"/>
			<point x="50" y="113"/>
			<point x="171" y="-12"/>
			<point x="357" y="-12" type="curve" smooth="yes"/>
			<point x="543" y="-12"/>
			<point x="664" y="113"/>
			<point x="664" y="349" type="curve" smooth="yes"/>
			<point x="664" y="585"/>
			<point x="543" y="710"/>
			<point x="357" y="710" type="curve" smooth="yes"/>
			<point x="199" y="710"/>
			<point x="110" y="622"/>
			<point x="74" y="513" type="curve"/>
			<point x="211" y="464" type="line"/>
			<point x="230" y="533"/>
			<point x="267" y="575"/>
			<point x="357" y="575" type="curve" smooth="yes"/>
			<point x="447" y="575"/>
			<point x="503" y="512"/>
			<point x="503" y="402" type="curve" smooth="yes"/>
			<point x="503" y="399" type="line"/>
		</contour>
		<contour>
			<point x="213" y="274" type="line"/>
			<point x="501" y="274" type="line"/>
			<point x="501" y="272" type="line" smooth="yes"/>
			<point x="501" y="194"/>
			<point x="452" y="123"/>
			<point x="357" y="123" type="curve" smooth="yes"/>
			<point x="262" y="123"/>
			<point x="213" y="198"/>
			<point x="213" y="272" type="curve" smooth="yes"/>
		</contour>
	</outline>
</glyph>
<glyph name="tonos" format="2">
	<advance width="600"/>
	<unicode hex="0384"/>
	<anchor x="308" y="540" name="_top"/>
	<outline>
		<contour>
			<point x="425" y="796" type="line"/>
			<point x="292" y="816" type="line"/>
			<point x="257" y="593" type="line"/>
			<point x="352" y="579" type="line"/>
		</contour>
	</outline>
</glyph>
<glyph name="Lambda" format="2">
	<advance width="671"/>
	<unicode hex="039B"/>
	<outline>
		<contour>
			<point x="247" y="698" type="line"/>
			<point x="20" y="0" type="line"/>
			<point x="174" y="0" type="line"/>
			<point x="278" y="335" type="line"/>
			<point x="331" y="554" type="line"/>
			<point x="334" y="554" type="line"/>
			<point x="389" y="335" type="line"/>
			<point x="493" y="0" type="line"/>
			<point x="651" y="0" type="line"/>
			<point x="426" y="698" type="line"/>
		</contour>
	</outline>
</glyph>
<glyph name="Xi" format="2">
	<advance width="605"/>
	<unicode hex="039E"/>
	<outline>
		<contour>
			<point x="55" y="563" type="line"/>
			<point x="550" y="563" type="line"/>
			<point x="550" y="698" type="line"/>
			<point x="55" y="698" type="line"/>
		</contour>
		<contour>
			<point x="116" y="286" type="line"/>
			<point x="489" y="286" type="line"/>
			<point x="489" y="420" type="line"/>
			<point x="116" y="420" type="line"/>
		</contour>
		<contour>
			<point x="55" y="0" type="line"/>
			<point x="550" y="0" type="line"/>
			<point x="550" y="135" type="line"/>
			<point x="55" y="135" type="line"/>
		</contour>
	</outline>
</glyph>
<glyph name="Sigma" format="2">
	<advance width="611"/>
	<unicode hex="03A3"/>
	<outline>
		<contour>
			<point x="559" y="0" type="line"/>
			<point x="559" y="134" type="line"/>
			<point x="223" y="134" type="line"/>
			<point x="450" y="355" type="line"/>
			<point x="242" y="564" type="line"/>
			<point x="559" y="564" type="line"/>
			<point x="559" y="698" type="line"/>
			<point x="54" y="698" type="line"/>
			<point x="54" y="563" type="line"/>
			<point x="266" y="350" type="line"/>
			<point x="44" y="135" type="line"/>
			<point x="44" y="0" type="line"/>
		</contour>
	</outline>
</glyph>
<glyph name="delta" format="2">
	<advance width="564"/>
	<unicode hex="03B4"/>
	<outline>
		<contour>
			<point x="310" y="443" type="curve"/>
			<point x="221" y="514" type="line"/>
			<point x="221" y="492" type="line"/>
			<point x="123" y="492"/>
			<point x="36" y="406"/>
			<point x="36" y="250" type="curve" smooth="yes"/>
			<point x="36" y="98"/>
			<point x="128" y="-12"/>
			<point x="282" y="-12" type="curve" smooth="yes"/>
			<point x="436" y="-12"/>
			<point x="528" y="93"/>
			<point x="528" y="263" type="curve" smooth="yes"/>
			<point x="528" y="383"/>
			<point x="477" y="481"/>
			<point x="335" y="568" type="curve" smooth="yes"/>
			<point x="230" y="632" type="line"/>
			<point x="230" y="636" type="line"/>
			<point x="323" y="625" type="line"/>
			<point x="481" y="625" type="line"/>
			<point x="481" y="740" type="line"/>
			<point x="90" y="740" type="line"/>
			<point x="90" y="600" type="line"/>
			<point x="274" y="456" type="line" smooth="yes"/>
			<point x="347" y="399"/>
			<point x="374" y="342"/>
			<point x="374" y="261" type="curve" smooth="yes"/>
			<point x="374" y="209" type="line" smooth="yes"/>
			<point x="374" y="143"/>
			<point x="340" y="105"/>
			<point x="282" y="105" type="curve" smooth="yes"/>
			<point x="224" y="105"/>
			<point x="190" y="143"/>
			<point x="190" y="209" type="curve" smooth="yes"/>
			<point x="190" y="303" type="line" smooth="yes"/>
			<point x="190" y="384"/>
			<point x="231" y="440"/>
		</contour>
	</outline>
</glyph>
<glyph name="eta" format="2">
	<advance width="610"/>
	<unicode hex="03B7"/>
	<anchor x="313" y="540" name="top"/>
	<outline>
		<contour>
			<point x="231" y="0" type="line"/>
			<point x="231" y="340" type="line" smooth="yes"/>
			<point x="231" y="392"/>
			<point x="278" y="417"/>
			<point x="326" y="417" type="curve" smooth="yes"/>
			<point x="380" y="417"/>
			<point x="399" y="384"/>
			<point x="399" y="317" type="curve" smooth="yes"/>
			<point x="399" y="-200" type="line"/>
			<point x="547" y="-200" type="line"/>
			<point x="547" y="329" type="line" smooth="yes"/>
			<point x="547" y="461"/>
			<point x="490" y="537"/>
			<point x="383" y="537" type="curve" smooth="yes"/>
			<point x="300" y="537"/>
			<point x="255" y="491"/>
			<point x="235" y="431" type="curve"/>
			<point x="193" y="431" type="line"/>
			<point x="230" y="406" type="line"/>
			<point x="230" y="413" type="line" smooth="yes"/>
			<point x="230" y="487"/>
			<point x="188" y="525"/>
			<point x="116" y="525" type="curve" smooth="yes"/>
			<point x="34" y="525" type="line"/>
			<point x="34" y="410" type="line"/>
			<point x="83" y="410" type="line"/>
			<point x="83" y="0" type="line"/>
		</contour>
	</outline>
</glyph>
<glyph name="theta" format="2">
	<advance width="576"/>
	<unicode hex="03B8"/>
	<outline>
		<contour>
			<point x="196" y="480" type="line" smooth="yes"/>
			<point x="196" y="603"/>
			<point x="228" y="635"/>
			<point x="288" y="635" type="curve" smooth="yes"/>
			<point x="348" y="635"/>
			<point x="380" y="603"/>
			<point x="380" y="480" type="curve" smooth="yes"/>
			<point x="380" y="428" type="line"/>
			<point x="196" y="428" type="line"/>
		</contour>
		<contour>
			<point x="288" y="752" type="curve" smooth="yes"/>
			<point x="136" y="752"/>
			<point x="42" y="657"/>
			<point x="42" y="370" type="curve" smooth="yes"/>
			<point x="42" y="83"/>
			<point x="136" y="-12"/>
			<point x="288" y="-12" type="curve" smooth="yes"/>
			<point x="440" y="-12"/>
			<point x="534" y="83"/>
			<point x="534" y="370" type="curve" smooth="yes"/>
			<point x="534" y="657"/>
			<point x="440" y="752"/>
		</contour>
		<contour>
			<point x="288" y="105" type="curve" smooth="yes"/>
			<point x="228" y="105"/>
			<point x="196" y="137"/>
			<point x="196" y="260" type="curve" smooth="yes"/>
			<point x="196" y="313" type="line"/>
			<point x="380" y="313" type="line"/>
			<point x="380" y="260" type="line" smooth="yes"/>
			<point x="380" y="137"/>
			<point x="348" y="105"/>
		</contour>
	</outline>
</glyph>
<glyph name="iota" format="2">
	<advance width="329"/>
	<unicode hex="03B9"/>
	<anchor x="149" y="540" name="top"/>
	<outline>
		<contour>
			<point x="313" y="115" type="line"/>
			<point x="217" y="115" type="line"/>
			<point x="217" y="525" type="line"/>
			<point x="69" y="525" type="line"/>
			<point x="69" y="153" type="line" smooth="yes"/>
			<point x="69" y="53"/>
			<point x="123" y="0"/>
			<point x="225" y="0" type="curve" smooth="yes"/>
			<point x="313" y="0" type="line"/>
		</contour>
	</outline>
</glyph>
<glyph name="kappa" format="2">
	<advance width="580"/>
	<unicode hex="03BA"/>
	<outline>
		<contour>
			<point x="393" y="0" type="line"/>
			<point x="566" y="0" type="line"/>
			<point x="381" y="316" type="line"/>
			<point x="475" y="410" type="line"/>
			<point x="536" y="410" type="line"/>
			<point x="536" y="525" type="line"/>
			<point x="484" y="525" type="line" smooth="yes"/>
			<point x="430" y="525"/>
			<point x="403" y="515"/>
			<point x="369" y="477" type="curve" smooth="yes"/>
			<point x="290" y="388" type="line"/>
			<point x="223" y="300" type="line"/>
			<point x="217" y="300" type="line"/>
			<point x="217" y="525" type="line"/>
			<point x="69" y="525" type="line"/>
			<point x="69" y="0" type="line"/>
			<point x="217" y="0" type="line"/>
			<point x="217" y="153" type="line"/>
			<point x="283" y="219" type="line"/>
		</contour>
	</outline>
</glyph>
<glyph name="nu" format="2">
	<advance width="540"/>
	<unicode hex="03BD"/>
	<outline>
		<contour>
			<point x="354" y="0" type="line"/>
			<point x="531" y="525" type="line"/>
			<point x="391" y="525" type="line"/>
			<point x="314" y="274" type="line"/>
			<point x="274" y="123" type="line"/>
			<point x="266" y="123" type="line"/>
			<point x="235" y="274" type="line"/>
			<point x="198" y="416" type="line" smooth="yes"/>
			<point x="177" y="498"/>
			<point x="138" y="525"/>
			<point x="60" y="525" type="curve" smooth="yes"/>
			<point x="8" y="525" type="line"/>
			<point x="8" y="410" type="line"/>
			<point x="57" y="410" type="line"/>
			<point x="178" y="0" type="line"/>
		</contour>
	</outline>
</glyph>
<glyph name="uni0404" format="2">
	<advance width="671"/>
	<unicode hex="0404"/>
	<outline>
		<contour>
			<point x="369" y="-12" type="curve" smooth="yes"/>
			<point x="509" y="-12"/>
			<point x="591" y="47"/>
			<point x="641" y="147" type="curve"/>
			<point x="518" y="223" type="line"/>
			<point x="496" y="165"/>
			<point x="454" y="123"/>
			<point x="369" y="123" type="curve" smooth="yes"/>
			<point x="271" y="123"/>
			<point x="211" y="179"/>
			<point x="211" y="292" type="curve" smooth="yes"/>
			<point x="211" y="331" type="line"/>
			<point x="166" y="286" type="line"/>
			<point x="442" y="286" type="line"/>
			<point x="442" y="420" type="line"/>
			<point x="166" y="420" type="line"/>
			<point x="211" y="385" type="line"/>
			<point x="211" y="412" type="line" smooth="yes"/>
			<point x="211" y="503"/>
			<point x="260" y="575"/>
			<point x="369" y="575" type="curve" smooth="yes"/>
			<point x="454" y="575"/>
			<point x="487" y="538"/>
			<point x="511" y="482" type="curve"/>
			<point x="638" y="554" type="line"/>
			<point x="580" y="656"/>
			<point x="503" y="710"/>
			<point x="369" y="710" type="curve" smooth="yes"/>
			<point x="169" y="710"/>
			<point x="50" y="580"/>
			<point x="50" y="344" type="curve" smooth="yes"/>
			<point x="50" y="108"/>
			<point x="169" y="-12"/>
		</contour>
	</outline>
</glyph>
<glyph name="uni0413" format="2">
	<advance width="514"/>
	<unicode hex="0413"/>
	<anchor x="282" y="698" name="top"/>
	<outline>
		<contour>
			<point x="77" y="0" type="line"/>
			<point x="229" y="0" type="line"/>
			<point x="229" y="563" type="line"/>
			<point x="487" y="563" type="line"/>
			<point x="487" y="698" type="line"/>
			<point x="77" y="698" type="line"/>
		</contour>
	</outline>
</glyph>
<glyph name="uni0423" format="2">
	<advance width="631"/>
	<unicode hex="0423"/>
	<anchor x="318" y="698" name="top"/>
	<outline>
		<contour>
			<point x="119" y="0" type="line"/>
			<point x="219" y="0" type="line" smooth="yes"/>
			<point x="302" y="0"/>
			<point x="341" y="26"/>
			<point x="371" y="98" type="curve" smooth="yes"/>
			<point x="617" y="698" type="line"/>
			<point x="468" y="698" type="line"/>
			<point x="382" y="482" type="line"/>
			<point x="331" y="342" type="line"/>
			<point x="328" y="342" type="line"/>
			<point x="270" y="481" type="line"/>
			<point x="172" y="698" type="line"/>
			<point x="12" y="698" type="line"/>
			<point x="256" y="173" type="line"/>
			<point x="241" y="135" type="line"/>
			<point x="119" y="135" type="line"/>
		</contour>
	</outline>
</glyph>
<glyph name="uni0428" format="2">
	<advance width="1030"/>
	<unicode hex="0428"/>
	<outline>
		<contour>
			<point x="77" y="0" type="line"/>
			<point x="953" y="0" type="line"/>
			<point x="953" y="698" type="line"/>
			<point x="801" y="698" type="line"/>
			<point x="801" y="135" type="line"/>
			<point x="592" y="135" type="line"/>
			<point x="592" y="698" type="line"/>
			<point x="440" y="698" type="line"/>
			<point x="440" y="135" type="line"/>
			<point x="229" y="135" type="line"/>
			<point x="229" y="698" type="line"/>
			<point x="77" y="698" type="line"/>
		</contour>
	</outline>
</glyph>
<glyph name="uni0429" format="2">
	<advance width="1093"/>
	<unicode hex="0429"/>
	<outline>
		<contour>
			<point x="923" y="-150" type="line"/>
			<point x="1066" y="-150" type="line"/>
			<point x="1066" y="135" type="line"/>
			<point x="953" y="135" type="line"/>
			<point x="953" y="698" type="line"/>
			<point x="801" y="698" type="line"/>
			<point x="801" y="135" type="line"/>
			<point x="591" y="135" type="line"/>
			<point x="591" y="698" type="line"/>
			<point x="439" y="698" type="line"/>
			<point x="439" y="135" type="line"/>
			<point x="229" y="135" type="line"/>
			<point x="229" y="698" type="line"/>
			<point x="77" y="698" type="line"/>
			<point x="77" y="0" type="line"/>
			<point x="923" y="0" type="line"/>
		</contour>
	</outline>
</glyph>
<glyph name="uni0431" format="2">
	<advance width="567"/>
	<unicode hex="0431"/>
	<outline>
		<contour>
			<point x="286" y="-12" type="curve" smooth="yes"/>
			<point x="440" y="-12"/>
			<point x="531" y="93"/>
			<point x="531" y="263" type="curve" smooth="yes"/>
			<point x="531" y="417"/>
			<point x="446" y="510"/>
			<point x="336" y="510" type="curve" smooth="yes"/>
			<point x="262" y="510"/>
			<point x="221" y="475"/>
			<point x="199" y="407" type="curve"/>
			<point x="194" y="407" type="line"/>
			<point x="198" y="541"/>
			<point x="227" y="583"/>
			<point x="325" y="593" type="curve" smooth="yes"/>
			<point x="496" y="610" type="line"/>
			<point x="496" y="752" type="line"/>
			<point x="326" y="735" type="line" smooth="yes"/>
			<point x="128" y="715"/>
			<point x="40" y="591"/>
			<point x="40" y="325" type="curve" smooth="yes"/>
			<point x="40" y="238"/>
			<point x="53" y="168"/>
			<point x="77" y="116" type="curve" smooth="yes"/>
			<point x="117" y="28"/>
			<point x="189" y="-12"/>
		</contour>
		<contour>
			<point x="286" y="105" type="curve" smooth="yes"/>
			<point x="228" y="105"/>
			<point x="194" y="143"/>
			<point x="194" y="209" type="curve" smooth="yes"/>
			<point x="194" y="289" type="line" smooth="yes"/>
			<point x="194" y="355"/>
			<point x="228" y="393"/>
			<point x="286" y="393" type="curve" smooth="yes"/>
			<point x="344" y="393"/>
			<point x="378" y="355"/>
			<point x="378" y="289" type="curve" smooth="yes"/>
			<point x="378" y="209" type="line" smooth="yes"/>
			<point x="378" y="143"/>
			<point x="344" y="105"/>
		</contour>
	</outline>
</glyph>
<glyph name="uni0434" format="2">
	<advance width="658"/>
	<unicode hex="0434"/>
	<outline>
		<contour>
			<point x="10" y="-140" type="line"/>
			<point x="144" y="-140" type="line"/>
			<point x="144" y="0" type="line"/>
			<point x="509" y="0" type="line"/>
			<point x="509" y="-140" type="line"/>
			<point x="643" y="-140" type="line"/>
			<point x="643" y="115" type="line"/>
			<point x="553" y="115" type="line"/>
			<point x="553" y="525" type="line"/>
			<point x="131" y="525" type="line"/>
			<point x="131" y="376" type="line" smooth="yes"/>
			<point x="131" y="239"/>
			<point x="115" y="166"/>
			<point x="79" y="115" type="curve"/>
			<point x="10" y="115" type="line"/>
		</contour>
		<contour>
			<point x="234" y="115" type="line"/>
			<point x="256" y="153"/>
			<point x="273" y="224"/>
			<point x="273" y="368" type="curve" smooth="yes"/>
			<point x="273" y="410" type="line"/>
			<point x="405" y="410" type="line"/>
			<point x="405" y="115" type="line"/>
		</contour>
	</outline>
</glyph>
<glyph name="uni0438" format="2">
	<advance width="612"/>
	<unicode hex="0438"/>
	<anchor x="307" y="0" name="bottom"/>
	<anchor x="307" y="540" name="top"/>
	<outline>
		<contour>
			<point x="69" y="0" type="line"/>
			<point x="201" y="0" type="line"/>
			<point x="347" y="221" type="line"/>
			<point x="408" y="333" type="line"/>
			<point x="411" y="333" type="line"/>
			<point x="398" y="211" type="line"/>
			<point x="398" y="0" type="line"/>
			<point x="543" y="0" type="line"/>
			<point x="543" y="525" type="line"/>
			<point x="411" y="525" type="line"/>
			<point x="265" y="304" type="line"/>
			<point x="204" y="192" type="line"/>
			<point x="201" y="192" type="line"/>
			<point x="214" y="314" type="line"/>
			<point x="214" y="525" type="line"/>
			<point x="69" y="525" type="line"/>
		</contour>
	</outline>
</glyph>
<glyph name="uni0442" format="2">
	<advance width="492"/>
	<unicode hex="0442"/>
	<outline>
		<contour>
			<point x="172" y="0" type="line"/>
			<point x="320" y="0" type="line"/>
			<point x="320" y="410" type="line"/>
			<point x="472" y="410" type="line"/>
			<point x="472" y="525" type="line"/>
			<point x="20" y="525" type="line"/>
			<point x="20" y="410" type="line"/>
			<point x="172" y="410" type="line"/>
		</contour>
	</outline>
</glyph>
<glyph name="uni0446" format="2">
	<advance width="633"/>
	<unicode hex="0446"/>
	<outline>
		<contour>
			<point x="484" y="-140" type="line"/>
			<point x="618" y="-140" type="line"/>
			<point x="618" y="115" type="line"/>
			<point x="528" y="115" type="line"/>
			<point x="528" y="525" type="line"/>
			<point x="380" y="525" type="line"/>
			<point x="380" y="115" type="line"/>
			<point x="217" y="115" type="line"/>
			<point x="217" y="525" type="line"/>
			<point x="69" y="525" type="line"/>
			<point x="69" y="0" type="line"/>
			<point x="484" y="0" type="line"/>
		</contour>
	</outline>
</glyph>
<glyph name="uni0454" format="2">
	<advance width="535"/>
	<unicode hex="0454"/>
	<outline>
		<contour>
			<point x="291" y="-12" type="curve" smooth="yes"/>
			<point x="404" y="-12"/>
			<point x="462" y="26"/>
			<point x="512" y="120" type="curve"/>
			<point x="399" y="179" type="line"/>
			<point x="379" y="127"/>
			<point x="348" y="104"/>
			<point x="291" y="104" type="curve" smooth="yes"/>
			<point x="221" y="104"/>
			<point x="190" y="146"/>
			<point x="190" y="213" type="curve" smooth="yes"/>
			<point x="190" y="218" type="line"/>
			<point x="354" y="218" type="line"/>
			<point x="354" y="316" type="line"/>
			<point x="190" y="316" type="line"/>
			<point x="190" y="319" type="line" smooth="yes"/>
			<point x="190" y="378"/>
			<point x="224" y="421"/>
			<point x="288" y="421" type="curve" smooth="yes"/>
			<point x="351" y="421"/>
			<point x="377" y="396"/>
			<point x="391" y="352" type="curve"/>
			<point x="509" y="413" type="line"/>
			<point x="471" y="489"/>
			<point x="407" y="537"/>
			<point x="288" y="537" type="curve" smooth="yes"/>
			<point x="121" y="537"/>
			<point x="36" y="431"/>
			<point x="36" y="263" type="curve" smooth="yes"/>
			<point x="36" y="95"/>
			<point x="123" y="-12"/>
		</contour>
	</outline>
</glyph>
<glyph name="uni0472" format="2">
	<advance width="714"/>
	<unicode hex="0472"/>
	<anchor x="357" y="0" name="bottom"/>
	<anchor x="357" y="698" name="top"/>
	<outline>
		<contour>
			<point x="357" y="-12" type="curve" smooth="yes"/>
			<point x="542" y="-12"/>
			<point x="664" y="112"/>
			<point x="664" y="349" type="curve" smooth="yes"/>
			<point x="664" y="586"/>
			<point x="542" y="710"/>
			<point x="357" y="710" type="curve" smooth="yes"/>
			<point x="172" y="710"/>
			<point x="50" y="586"/>
			<point x="50" y="349" type="curve" smooth="yes"/>
			<point x="50" y="112"/>
			<point x="172" y="-12"/>
		</contour>
		<contour>
			<point x="357" y="113" type="curve" smooth="yes"/>
			<point x="261" y="113"/>
			<point x="201" y="179"/>
			<point x="201" y="297" type="curve" smooth="yes"/>
			<point x="201" y="327" type="line"/>
			<point x="172" y="264" type="line"/>
			<point x="208" y="295"/>
			<point x="232" y="309"/>
			<point x="269" y="309" type="curve" smooth="yes"/>
			<point x="297" y="309"/>
			<point x="322" y="301"/>
			<point x="350" y="290" type="curve" smooth="yes"/>
			<point x="384" y="277"/>
			<point x="408" y="270"/>
			<point x="441" y="270" type="curve" smooth="yes"/>
			<point x="483" y="270"/>
			<point x="521" y="290"/>
			<point x="533" y="306" type="curve"/>
			<point x="513" y="329" type="line"/>
			<point x="513" y="309" type="line" smooth="yes"/>
			<point x="513" y="183"/>
			<point x="456" y="113"/>
		</contour>
		<contour>
			<point x="357" y="585" type="curve" smooth="yes"/>
			<point x="454" y="585"/>
			<point x="513" y="523"/>
			<point x="513" y="401" type="curve" smooth="yes"/>
			<point x="513" y="380" type="line"/>
			<point x="542" y="442" type="line"/>
			<point x="506" y="411"/>
			<point x="482" y="397"/>
			<point x="445" y="397" type="curve" smooth="yes"/>
			<point x="417" y="397"/>
			<point x="392" y="405"/>
			<point x="364" y="416" type="curve" smooth="yes"/>
			<point x="330" y="429"/>
			<point x="306" y="436"/>
			<point x="273" y="436" type="curve" smooth="yes"/>
			<point x="231" y="436"/>
			<point x="197" y="417"/>
			<point x="188" y="408" type="curve"/>
			<point x="200" y="377" type="line"/>
			<point x="200" y="398" type="line" smooth="yes"/>
			<point x="200" y="518"/>
			<point x="260" y="585"/>
		</contour>
	</outline>
</glyph>
<glyph name="uni0473" format="2">
	<advance width="564"/>
	<unicode hex="0473"/>
	<anchor x="281" y="0" name="bottom"/>
	<anchor x="281" y="540" name="top"/>
	<outline>
		<contour>
			<point x="282" y="-12" type="curve" smooth="yes"/>
			<point x="436" y="-12"/>
			<point x="528" y="94"/>
			<point x="528" y="263" type="curve" smooth="yes"/>
			<point x="528" y="432"/>
			<point x="436" y="537"/>
			<point x="282" y="537" type="curve" smooth="yes"/>
			<point x="128" y="537"/>
			<point x="36" y="432"/>
			<point x="36" y="263" type="curve" smooth="yes"/>
			<point x="36" y="94"/>
			<point x="128" y="-12"/>
		</contour>
		<contour>
			<point x="282" y="95" type="curve" smooth="yes"/>
			<point x="219" y="95"/>
			<point x="180" y="132"/>
			<point x="180" y="203" type="curve" smooth="yes"/>
			<point x="180" y="214" type="line"/>
			<point x="195" y="225"/>
			<point x="208" y="229"/>
			<point x="225" y="229" type="curve" smooth="yes"/>
			<point x="242" y="229"/>
			<point x="258" y="224"/>
			<point x="277" y="215" type="curve" smooth="yes"/>
			<point x="299" y="205"/>
			<point x="316" y="200"/>
			<point x="339" y="200" type="curve" smooth="yes"/>
			<point x="356" y="200"/>
			<point x="374" y="206"/>
			<point x="384" y="214" type="curve"/>
			<point x="384" y="205" type="line" smooth="yes"/>
			<point x="384" y="134"/>
			<point x="345" y="95"/>
		</contour>
		<contour>
			<point x="180" y="320" type="line" smooth="yes"/>
			<point x="180" y="391"/>
			<point x="219" y="430"/>
			<point x="282" y="430" type="curve" smooth="yes"/>
			<point x="345" y="430"/>
			<point x="384" y="391"/>
			<point x="384" y="320" type="curve" smooth="yes"/>
			<point x="384" y="309" type="line"/>
			<point x="369" y="298"/>
			<point x="356" y="294"/>
			<point x="339" y="294" type="curve" smooth="yes"/>
			<point x="322" y="294"/>
			<point x="306" y="299"/>
			<point x="287" y="308" type="curve" smooth="yes"/>
			<point x="265" y="318"/>
			<point x="248" y="323"/>
			<point x="225" y="323" type="curve" smooth="yes"/>
			<point x="208" y="323"/>
			<point x="190" y="317"/>
			<point x="180" y="309" type="curve"/>
		</contour>
	</outline>
</glyph>
<glyph name="uni0490" format="2">
	<advance width="514"/>
	<unicode hex="0490"/>
	<outline>
		<contour>
			<point x="77" y="0" type="line"/>
			<point x="229" y="0" type="line"/>
			<point x="229" y="563" type="line"/>
			<point x="487" y="563" type="line"/>
			<point x="487" y="848" type="line"/>
			<point x="344" y="848" type="line"/>
			<point x="344" y="698" type="line"/>
			<point x="77" y="698" type="line"/>
		</contour>
	</outline>
</glyph>
<glyph name="uni0493" format="2">
	<advance width="461"/>
	<unicode hex="0493"/>
	<outline>
		<contour>
			<point x="86" y="0" type="line"/>
			<point x="234" y="0" type="line"/>
			<point x="234" y="205" type="line"/>
			<point x="357" y="205" type="line"/>
			<point x="357" y="303" type="line"/>
			<point x="234" y="303" type="line"/>
			<point x="234" y="410" type="line"/>
			<point x="441" y="410" type="line"/>
			<point x="441" y="525" type="line"/>
			<point x="86" y="525" type="line"/>
			<point x="86" y="303" type="line"/>
			<point x="22" y="303" type="line"/>
			<point x="22" y="205" type="line"/>
			<point x="86" y="205" type="line"/>
		</contour>
	</outline>
</glyph>
<glyph name="uni0496" format="2">
	<advance width="1029"/>
	<unicode hex="0496"/>
	<outline>
		<contour>
			<point x="874" y="-150" type="line"/>
			<point x="1017" y="-150" type="line"/>
			<point x="1017" y="135" type="line"/>
			<point x="904" y="135" type="line"/>
			<point x="827" y="298" type="line" smooth="yes"/>
			<point x="810" y="334"/>
			<point x="786" y="352"/>
			<point x="752" y="357" type="curve"/>
			<point x="752" y="363" type="line"/>
			<point x="784" y="372"/>
			<point x="805" y="389"/>
			<point x="825" y="429" type="curve" smooth="yes"/>
			<point x="889" y="563" type="line"/>
			<point x="951" y="563" type="line"/>
			<point x="951" y="698" type="line"/>
			<point x="889" y="698" type="line" smooth="yes"/>
			<point x="830" y="698"/>
			<point x="792" y="672"/>
			<point x="764" y="614" type="curve" smooth="yes"/>
			<point x="670" y="420" type="line"/>
			<point x="579" y="420" type="line"/>
			<point x="579" y="698" type="line"/>
			<point x="427" y="698" type="line"/>
			<point x="427" y="420" type="line"/>
			<point x="336" y="420" type="line"/>
			<point x="242" y="614" type="line" smooth="yes"/>
			<point x="214" y="672"/>
			<point x="176" y="698"/>
			<point x="117" y="698" type="curve" smooth="yes"/>
			<point x="54" y="698" type="line"/>
			<point x="54" y="563" type="line"/>
			<point x="116" y="563" type="line"/>
			<point x="181" y="429" type="line" smooth="yes"/>
			<point x="201" y="389"/>
			<point x="222" y="372"/>
			<point x="254" y="363" type="curve"/>
			<point x="254" y="357" type="line"/>
			<point x="220" y="352"/>
			<point x="196" y="334"/>
			<point x="179" y="298" type="curve" smooth="yes"/>
			<point x="102" y="135" type="line"/>
			<point x="40" y="135" type="line"/>
			<point x="40" y="0" type="line"/>
			<point x="120" y="0" type="line" smooth="yes"/>
			<point x="176" y="0"/>
			<point x="211" y="20"/>
			<point x="242" y="87" type="curve" smooth="yes"/>
			<point x="336" y="286" type="line"/>
			<point x="427" y="286" type="line"/>
			<point x="427" y="0" type="line"/>
			<point x="579" y="0" type="line"/>
			<point x="579" y="286" type="line"/>
			<point x="670" y="286" type="line"/>
			<point x="764" y="87" type="line"/>
			<point x="795" y="19"/>
			<point x="831" y="0"/>
			<point x="889" y="0" type="curve" smooth="yes"/>
			<point x="906" y="0" type="line"/>
			<point x="874" y="45" type="line"/>
		</contour>
	</outline>
</glyph>
<glyph name="uni0524" format="2">
	<advance width="772"/>
	<unicode hex="0524"/>
	<outline>
		<contour>
			<point x="77" y="0" type="line"/>
			<point x="229" y="0" type="line"/>
			<point x="229" y="563" type="line"/>
			<point x="480" y="563" type="line"/>
			<point x="480" y="0" type="line"/>
			<point x="602" y="0" type="line"/>
			<point x="602" y="-150" type="line"/>
			<point x="745" y="-150" type="line"/>
			<point x="745" y="135" type="line"/>
			<point x="632" y="135" type="line"/>
			<point x="632" y="698" type="line"/>
			<point x="77" y="698" type="line"/>
		</contour>
	</outline>
</glyph>
<glyph name="Delta" format="2">
	<advance width="682"/>
	<unicode hex="2206"/>
	<outline>
		<contour>
			<point x="49" y="0" type="line" name="hr00"/>
			<point x="633" y="0" type="line"/>
			<point x="633" y="122" type="line"/>
			<point x="446" y="698" type="line"/>
			<point x="238" y="698" type="line"/>
			<point x="49" y="121" type="line"/>
		</contour>
		<contour>
			<point x="470" y="129" type="line"/>
			<point x="210" y="129" type="line"/>
			<point x="306" y="457" type="line"/>
			<point x="335" y="556" type="line"/>
			<point x="343" y="556" type="line"/>
			<point x="372" y="457" type="line"/>
		</contour>
	</outline>
</glyph>
<glyph name="alpha.alt01" format="2">
	<advance width="622"/>
	<anchor x="291" y="0" name="bottom"/>
	<anchor x="588" y="0" name="bottomright"/>
	<anchor x="296" y="540" name="top"/>
	<outline>
		<contour>
			<point x="588" y="115" type="line"/>
			<point x="539" y="115" type="line"/>
			<point x="539" y="525" type="line"/>
			<point x="391" y="525" type="line"/>
			<point x="391" y="437" type="line"/>
			<point x="386" y="437" type="line"/>
			<point x="371" y="495"/>
			<point x="313" y="537"/>
			<point x="245" y="537" type="curve" smooth="yes"/>
			<point x="112" y="537"/>
			<point x="43" y="441"/>
			<point x="43" y="263" type="curve" smooth="yes"/>
			<point x="43" y="85"/>
			<point x="112" y="-12"/>
			<point x="245" y="-12" type="curve" smooth="yes"/>
			<point x="315" y="-12"/>
			<point x="371" y="30"/>
			<point x="391" y="96" type="curve"/>
			<point x="441" y="96" type="line"/>
			<point x="393" y="133" type="line"/>
			<point x="393" y="126" type="line" smooth="yes"/>
			<point x="393" y="51"/>
			<point x="442" y="0"/>
			<point x="538" y="0" type="curve" smooth="yes"/>
			<point x="588" y="0" type="line"/>
		</contour>
		<contour>
			<point x="294" y="108" type="curve" smooth="yes"/>
			<point x="238" y="108"/>
			<point x="197" y="151"/>
			<point x="197" y="217" type="curve" smooth="yes"/>
			<point x="197" y="308" type="line" smooth="yes"/>
			<point x="197" y="374"/>
			<point x="238" y="417"/>
			<point x="294" y="417" type="curve" smooth="yes"/>
			<point x="350" y="417"/>
			<point x="391" y="388"/>
			<point x="391" y="340" type="curve"/>
			<point x="391" y="185" type="line"/>
			<point x="391" y="137"/>
			<point x="350" y="108"/>
		</contour>
	</outline>
</glyph>
<glyph name="grave.case" format="2">
	<advance width="600"/>
	<anchor x="300" y="698" name="_top"/>
	<outline>
		<contour>
			<point x="284" y="740" type="line" name="hr00"/>
			<point x="372" y="783" type="line"/>
			<point x="273" y="977" type="line"/>
			<point x="150" y="916" type="line"/>
		</contour>
	</outline>
</glyph>
<glyph name="macron.case" format="2">
	<advance width="600"/>
	<anchor x="300" y="698" name="_top"/>
	<outline>
		<contour>
			<point x="147" y="785" type="line" name="hr00"/>
			<point x="453" y="785" type="line"/>
			<point x="453" y="888" type="line"/>
			<point x="147" y="888" type="line"/>
		</contour>
	</outline>
</glyph>
<glyph name="uni03BC" format="2">
	<advance width="616"/>
	<outline>
		<contour>
			<point x="216" y="-200" type="line"/>
			<point x="216" y="-96" type="line"/>
			<point x="178" y="44" type="line"/>
			<point x="183" y="44" type="line"/>
			<point x="209" y="4"/>
			<point x="235" y="-12"/>
			<point x="277" y="-12" type="curve" smooth="yes"/>
			<point x="331" y="-12"/>
			<point x="369" y="22"/>
			<point x="385" y="96" type="curve"/>
			<point x="435" y="96" type="line"/>
			<point x="387" y="132" type="line"/>
			<point x="387" y="128" type="line" smooth="yes"/>
			<point x="387" y="51"/>
			<point x="434" y="0"/>
			<point x="532" y="0" type="curve" smooth="yes"/>
			<point x="582" y="0" type="line"/>
			<point x="582" y="115" type="line"/>
			<point x="533" y="115" type="line"/>
			<point x="533" y="525" type="line"/>
			<point x="385" y="525" type="line"/>
			<point x="385" y="185" type="line" smooth="yes"/>
			<point x="385" y="137"/>
			<point x="342" y="108"/>
			<point x="291" y="108" type="curve" smooth="yes"/>
			<point x="238" y="108"/>
			<point x="217" y="143"/>
			<point x="217" y="206" type="curve" smooth="yes"/>
			<point x="217" y="525" type="line"/>
			<point x="69" y="525" type="line"/>
			<point x="69" y="-200" type="line"/>
		</contour>
	</outline>
</glyph>
<glyph name="uni040A" format="2">
	<advance width="1040"/>
	<outline>
		<contour>
			<point x="77" y="0" type="line"/>
			<point x="229" y="0" type="line"/>
			<point x="229" y="286" type="line"/>
			<point x="475" y="286" type="line"/>
			<point x="475" y="0" type="line"/>
			<point x="795" y="0" type="line" smooth="yes"/>
			<point x="925" y="0"/>
			<point x="1007" y="91"/>
			<point x="1007" y="223" type="curve" smooth="yes"/>
			<point x="1007" y="355"/>
			<point x="925" y="446"/>
			<point x="795" y="446" type="curve" smooth="yes"/>
			<point x="627" y="446" type="line"/>
			<point x="627" y="698" type="line"/>
			<point x="475" y="698" type="line"/>
			<point x="475" y="420" type="line"/>
			<point x="229" y="420" type="line"/>
			<point x="229" y="698" type="line"/>
			<point x="77" y="698" type="line"/>
		</contour>
		<contour>
			<point x="627" y="132" type="line"/>
			<point x="627" y="314" type="line"/>
			<point x="777" y="314" type="line" smooth="yes"/>
			<point x="822" y="314"/>
			<point x="850" y="290"/>
			<point x="850" y="245" type="curve" smooth="yes"/>
			<point x="850" y="201" type="line" smooth="yes"/>
			<point x="850" y="156"/>
			<point x="822" y="132"/>
			<point x="777" y="132" type="curve" smooth="yes"/>
		</contour>
	</outline>
</glyph>
<glyph name="uni040F" format="2">
	<advance width="709"/>
	<outline>
		<contour>
			<point x="283" y="-150" type="line"/>
			<point x="426" y="-150" type="line"/>
			<point x="426" y="0" type="line"/>
			<point x="632" y="0" type="line"/>
			<point x="632" y="698" type="line"/>
			<point x="480" y="698" type="line"/>
			<point x="480" y="135" type="line"/>
			<point x="229" y="135" type="line"/>
			<point x="229" y="698" type="line"/>
			<point x="77" y="698" type="line"/>
			<point x="77" y="0" type="line"/>
			<point x="283" y="0" type="line"/>
		</contour>
	</outline>
</glyph>
<glyph name="uni041F" format="2">
	<advance width="709"/>
	<outline>
		<contour>
			<point x="77" y="0" type="line"/>
			<point x="229" y="0" type="line"/>
			<point x="229" y="563" type="line"/>
			<point x="480" y="563" type="line"/>
			<point x="480" y="0" type="line"/>
			<point x="632" y="0" type="line"/>
			<point x="632" y="698" type="line"/>
			<point x="77" y="698" type="line"/>
		</contour>
	</outline>
</glyph>
<glyph name="uni043C" format="2">
	<advance width="726"/>
	<outline>
		<contour>
			<point x="69" y="0" type="line"/>
			<point x="213" y="0" type="line"/>
			<point x="213" y="267" type="line"/>
			<point x="213" y="341" type="line"/>
			<point x="216" y="341" type="line"/>
			<point x="256" y="268" type="line"/>
			<point x="363" y="94" type="line"/>
			<point x="470" y="268" type="line"/>
			<point x="510" y="341" type="line"/>
			<point x="513" y="341" type="line"/>
			<point x="513" y="265" type="line"/>
			<point x="513" y="0" type="line"/>
			<point x="657" y="0" type="line"/>
			<point x="657" y="525" type="line"/>
			<point x="497" y="525" type="line"/>
			<point x="365" y="310" type="line"/>
			<point x="361" y="310" type="line"/>
			<point x="229" y="525" type="line"/>
			<point x="69" y="525" type="line"/>
		</contour>
	</outline>
</glyph>
<glyph name="uni043D" format="2">
	<advance width="612"/>
	<outline>
		<contour>
			<point x="69" y="0" type="line"/>
			<point x="217" y="0" type="line"/>
			<point x="217" y="209" type="line"/>
			<point x="395" y="209" type="line"/>
			<point x="395" y="0" type="line"/>
			<point x="543" y="0" type="line"/>
			<point x="543" y="525" type="line"/>
			<point x="395" y="525" type="line"/>
			<point x="395" y="324" type="line"/>
			<point x="217" y="324" type="line"/>
			<point x="217" y="525" type="line"/>
			<point x="69" y="525" type="line"/>
		</contour>
	</outline>
</glyph>
<glyph name="uni049A" format="2">
	<advance width="698"/>
	<outline>
		<contour>
			<point x="543" y="-150" type="line"/>
			<point x="686" y="-150" type="line"/>
			<point x="686" y="135" type="line"/>
			<point x="573" y="135" type="line"/>
			<point x="491" y="294" type="line" smooth="yes"/>
			<point x="472" y="332"/>
			<point x="448" y="351"/>
			<point x="414" y="357" type="curve"/>
			<point x="414" y="363" type="line"/>
			<point x="446" y="373"/>
			<point x="468" y="391"/>
			<point x="487" y="427" type="curve" smooth="yes"/>
			<point x="559" y="563" type="line"/>
			<point x="621" y="563" type="line"/>
			<point x="621" y="698" type="line"/>
			<point x="559" y="698" type="line" smooth="yes"/>
			<point x="500" y="698"/>
			<point x="463" y="672"/>
			<point x="434" y="615" type="curve"/>
			<point x="330" y="420" type="line"/>
			<point x="229" y="420" type="line"/>
			<point x="229" y="698" type="line"/>
			<point x="77" y="698" type="line"/>
			<point x="77" y="0" type="line"/>
			<point x="229" y="0" type="line"/>
			<point x="229" y="286" type="line"/>
			<point x="330" y="286" type="line"/>
			<point x="434" y="85" type="line" smooth="yes"/>
			<point x="468" y="19"/>
			<point x="501" y="0"/>
			<point x="553" y="0" type="curve" smooth="yes"/>
			<point x="575" y="0" type="line"/>
			<point x="543" y="45" type="line"/>
		</contour>
	</outline>
</glyph>
<glyph name="uni049B" format="2">
	<advance width="601"/>
	<outline>
		<contour>
			<point x="455" y="-140" type="line"/>
			<point x="589" y="-140" type="line"/>
			<point x="589" y="115" type="line"/>
			<point x="499" y="115" type="line"/>
			<point x="440" y="222" type="line" smooth="yes"/>
			<point x="424" y="251"/>
			<point x="405" y="263"/>
			<point x="382" y="268" type="curve"/>
			<point x="382" y="273" type="line"/>
			<point x="406" y="279"/>
			<point x="423" y="292"/>
			<point x="441" y="326" type="curve" smooth="yes"/>
			<point x="486" y="410" type="line"/>
			<point x="539" y="410" type="line"/>
			<point x="539" y="525" type="line"/>
			<point x="478" y="525" type="line" smooth="yes"/>
			<point x="422" y="525"/>
			<point x="390" y="504"/>
			<point x="362" y="452" type="curve" smooth="yes"/>
			<point x="293" y="324" type="line"/>
			<point x="217" y="324" type="line"/>
			<point x="217" y="525" type="line"/>
			<point x="69" y="525" type="line"/>
			<point x="69" y="0" type="line"/>
			<point x="217" y="0" type="line"/>
			<point x="217" y="209" type="line"/>
			<point x="293" y="209" type="line"/>
			<point x="367" y="75" type="line" smooth="yes"/>
			<point x="396" y="23"/>
			<point x="426" y="0"/>
			<point x="478" y="0" type="curve" smooth="yes"/>
			<point x="487" y="0" type="line"/>
			<point x="455" y="47" type="line"/>
		</contour>
	</outline>
</glyph>
<glyph name="uni04A2" format="2">
	<advance width="787"/>
	<outline>
		<contour>
			<point x="617" y="-150" type="line"/>
			<point x="760" y="-150" type="line"/>
			<point x="760" y="135" type="line"/>
			<point x="647" y="135" type="line"/>
			<point x="647" y="698" type="line"/>
			<point x="495" y="698" type="line"/>
			<point x="495" y="420" type="line"/>
			<point x="229" y="420" type="line"/>
			<point x="229" y="698" type="line"/>
			<point x="77" y="698" type="line"/>
			<point x="77" y="0" type="line"/>
			<point x="229" y="0" type="line"/>
			<point x="229" y="286" type="line"/>
			<point x="495" y="286" type="line"/>
			<point x="495" y="0" type="line"/>
			<point x="617" y="0" type="line"/>
		</contour>
	</outline>
</glyph>
<glyph name="uni04A3" format="2">
	<advance width="648"/>
	<outline>
		<contour>
			<point x="499" y="-140" type="line"/>
			<point x="633" y="-140" type="line"/>
			<point x="633" y="115" type="line"/>
			<point x="543" y="115" type="line"/>
			<point x="543" y="525" type="line"/>
			<point x="395" y="525" type="line"/>
			<point x="395" y="324" type="line"/>
			<point x="217" y="324" type="line"/>
			<point x="217" y="525" type="line"/>
			<point x="69" y="525" type="line"/>
			<point x="69" y="0" type="line"/>
			<point x="217" y="0" type="line"/>
			<point x="217" y="209" type="line"/>
			<point x="395" y="209" type="line"/>
			<point x="395" y="0" type="line"/>
			<point x="499" y="0" type="line"/>
		</contour>
	</outline>
</glyph>
<glyph name="uni04A5" format="2">
	<advance width="763"/>
	<outline>
		<contour>
			<point x="69" y="0" type="line"/>
			<point x="217" y="0" type="line"/>
			<point x="217" y="209" type="line"/>
			<point x="388" y="209" type="line"/>
			<point x="388" y="0" type="line"/>
			<point x="536" y="0" type="line"/>
			<point x="536" y="410" type="line"/>
			<point x="743" y="410" type="line"/>
			<point x="743" y="525" type="line"/>
			<point x="388" y="525" type="line"/>
			<point x="388" y="324" type="line"/>
			<point x="217" y="324" type="line"/>
			<point x="217" y="525" type="line"/>
			<point x="69" y="525" type="line"/>
		</contour>
	</outline>
</glyph>
<glyph name="uni04A7" format="2">
	<advance width="859"/>
	<outline>
		<contour>
			<point x="558" y="-200" type="line"/>
			<point x="628" y="-200" type="line" smooth="yes"/>
			<point x="756" y="-200"/>
			<point x="813" y="-139"/>
			<point x="813" y="-1" type="curve" smooth="yes"/>
			<point x="813" y="113" type="line" smooth="yes"/>
			<point x="813" y="253"/>
			<point x="758" y="312"/>
			<point x="643" y="312" type="curve" smooth="yes"/>
			<point x="578" y="312"/>
			<point x="541" y="285"/>
			<point x="517" y="243" type="curve"/>
			<point x="512" y="243" type="line"/>
			<point x="512" y="525" type="line"/>
			<point x="69" y="525" type="line"/>
			<point x="69" y="0" type="line"/>
			<point x="217" y="0" type="line"/>
			<point x="217" y="410" type="line"/>
			<point x="364" y="410" type="line"/>
			<point x="364" y="0" type="line"/>
			<point x="512" y="0" type="line"/>
			<point x="512" y="143" type="line"/>
			<point x="514" y="171"/>
			<point x="541" y="192"/>
			<point x="591" y="192" type="curve" smooth="yes"/>
			<point x="644" y="192"/>
			<point x="665" y="172"/>
			<point x="665" y="106" type="curve" smooth="yes"/>
			<point x="665" y="11" type="line" smooth="yes"/>
			<point x="665" y="-43"/>
			<point x="658" y="-67"/>
			<point x="642" y="-85" type="curve"/>
			<point x="558" y="-85" type="line"/>
		</contour>
	</outline>
</glyph>
<glyph name="uni04AC" format="2">
	<advance width="584"/>
	<outline>
		<contour>
			<point x="557" y="563" type="line"/>
			<point x="557" y="698" type="line"/>
			<point x="27" y="698" type="line"/>
			<point x="27" y="563" type="line"/>
			<point x="216" y="563" type="line"/>
			<point x="216" y="0" type="line"/>
			<point x="338" y="0" type="line"/>
			<point x="338" y="-150" type="line"/>
			<point x="481" y="-150" type="line"/>
			<point x="481" y="135" type="line"/>
			<point x="368" y="135" type="line"/>
			<point x="368" y="563" type="line"/>
		</contour>
	</outline>
</glyph>
<glyph name="uni04AD" format="2">
	<advance width="492"/>
	<outline>
		<contour>
			<point x="172" y="0" type="line"/>
			<point x="276" y="0" type="line"/>
			<point x="276" y="-140" type="line"/>
			<point x="410" y="-140" type="line"/>
			<point x="410" y="115" type="line"/>
			<point x="320" y="115" type="line"/>
			<point x="320" y="410" type="line"/>
			<point x="472" y="410" type="line"/>
			<point x="472" y="525" type="line"/>
			<point x="20" y="525" type="line"/>
			<point x="20" y="410" type="line"/>
			<point x="172" y="410" type="line"/>
		</contour>
	</outline>
</glyph>
<glyph name="uni04AF" format="2">
	<advance width="538"/>
	<outline>
		<contour>
			<point x="195" y="-200" type="line"/>
			<point x="343" y="-200" type="line"/>
			<point x="343" y="0" type="line"/>
			<point x="529" y="525" type="line"/>
			<point x="389" y="525" type="line"/>
			<point x="323" y="313" type="line"/>
			<point x="277" y="145" type="line"/>
			<point x="269" y="145" type="line"/>
			<point x="224" y="313" type="line"/>
			<point x="155" y="525" type="line"/>
			<point x="9" y="525" type="line"/>
			<point x="195" y="0" type="line"/>
		</contour>
	</outline>
</glyph>
<glyph name="uni04B0" format="2">
	<advance width="649"/>
	<outline>
		<contour>
			<point x="248" y="0" type="line"/>
			<point x="401" y="0" type="line"/>
			<point x="401" y="159" type="line"/>
			<point x="539" y="159" type="line"/>
			<point x="539" y="273" type="line"/>
			<point x="401" y="273" type="line"/>
			<point x="640" y="698" type="line"/>
			<point x="475" y="698" type="line"/>
			<point x="331" y="420" type="line"/>
			<point x="329" y="420" type="line"/>
			<point x="179" y="698" type="line"/>
			<point x="9" y="698" type="line"/>
			<point x="248" y="273" type="line"/>
			<point x="109" y="273" type="line"/>
			<point x="109" y="159" type="line"/>
			<point x="248" y="159" type="line"/>
		</contour>
	</outline>
</glyph>
<glyph name="uni04B4" format="2">
	<advance width="901"/>
	<outline>
		<contour>
			<point x="731" y="-150" type="line"/>
			<point x="874" y="-150" type="line"/>
			<point x="874" y="135" type="line"/>
			<point x="761" y="135" type="line"/>
			<point x="761" y="698" type="line"/>
			<point x="609" y="698" type="line"/>
			<point x="609" y="135" type="line"/>
			<point x="348" y="135" type="line"/>
			<point x="348" y="563" type="line"/>
			<point x="517" y="563" type="line"/>
			<point x="517" y="698" type="line"/>
			<point x="27" y="698" type="line"/>
			<point x="27" y="563" type="line"/>
			<point x="196" y="563" type="line"/>
			<point x="196" y="0" type="line"/>
			<point x="731" y="0" type="line"/>
		</contour>
	</outline>
</glyph>
<glyph name="uni04B5" format="2">
	<advance width="731"/>
	<outline>
		<contour>
			<point x="582" y="-140" type="line"/>
			<point x="716" y="-140" type="line"/>
			<point x="716" y="115" type="line"/>
			<point x="626" y="115" type="line"/>
			<point x="626" y="525" type="line"/>
			<point x="478" y="525" type="line"/>
			<point x="478" y="115" type="line"/>
			<point x="295" y="115" type="line"/>
			<point x="295" y="410" type="line"/>
			<point x="422" y="410" type="line"/>
			<point x="422" y="525" type="line"/>
			<point x="20" y="525" type="line"/>
			<point x="20" y="410" type="line"/>
			<point x="147" y="410" type="line"/>
			<point x="147" y="0" type="line"/>
			<point x="582" y="0" type="line"/>
		</contour>
	</outline>
</glyph>
<glyph name="uni04BC" format="2">
	<advance width="878"/>
	<outline>
		<contour>
			<point x="828" y="349" type="line"/>
			<point x="828" y="585"/>
			<point x="707" y="710"/>
			<point x="521" y="710" type="curve" smooth="yes"/>
			<point x="356" y="710"/>
			<point x="243" y="611"/>
			<point x="219" y="424" type="curve"/>
			<point x="154" y="424" type="line"/>
			<point x="154" y="530" type="line"/>
			<point x="30" y="530" type="line"/>
			<point x="30" y="400" type="line" smooth="yes"/>
			<point x="30" y="335"/>
			<point x="62" y="299"/>
			<point x="134" y="299" type="curve" smooth="yes"/>
			<point x="216" y="299" type="line"/>
			<point x="233" y="95"/>
			<point x="354" y="-12"/>
			<point x="526" y="-12" type="curve" smooth="yes"/>
			<point x="684" y="-12"/>
			<point x="773" y="76"/>
			<point x="809" y="185" type="curve"/>
			<point x="672" y="234" type="line"/>
			<point x="653" y="165"/>
			<point x="616" y="123"/>
			<point x="526" y="123" type="curve" smooth="yes"/>
			<point x="436" y="123"/>
			<point x="375" y="186"/>
			<point x="375" y="296" type="curve" smooth="yes"/>
			<point x="375" y="344" type="line"/>
			<point x="330" y="299" type="line"/>
			<point x="828" y="299" type="line"/>
		</contour>
		<contour>
			<point x="521" y="575" type="curve"/>
			<point x="610" y="575"/>
			<point x="666" y="512"/>
			<point x="666" y="409" type="curve" smooth="yes"/>
			<point x="666" y="385" type="line"/>
			<point x="711" y="424" type="line"/>
			<point x="331" y="424" type="line"/>
			<point x="376" y="386" type="line"/>
			<point x="376" y="410" type="line" smooth="yes"/>
			<point x="376" y="510"/>
			<point x="431" y="575"/>
		</contour>
	</outline>
</glyph>
<glyph name="uni04CF" format="2">
	<advance width="286"/>
	<outline>
		<contour>
			<point x="69" y="0" type="line"/>
			<point x="217" y="0" type="line"/>
			<point x="217" y="740" type="line"/>
			<point x="69" y="740" type="line"/>
		</contour>
	</outline>
</glyph>
<glyph name="uni04E0" format="2">
	<advance width="593"/>
	<outline>
		<contour>
			<point x="285" y="-12" type="curve" smooth="yes"/>
			<point x="463" y="-12"/>
			<point x="568" y="77"/>
			<point x="568" y="212" type="curve" smooth="yes"/>
			<point x="568" y="346"/>
			<point x="471" y="408"/>
			<point x="355" y="408" type="curve" smooth="yes"/>
			<point x="324" y="408" type="line"/>
			<point x="356" y="363" type="line"/>
			<point x="356" y="412" type="line"/>
			<point x="537" y="563" type="line"/>
			<point x="537" y="698" type="line"/>
			<point x="79" y="698" type="line"/>
			<point x="79" y="563" type="line"/>
			<point x="264" y="563" type="line"/>
			<point x="357" y="574" type="line"/>
			<point x="357" y="568" type="line"/>
			<point x="164" y="412" type="line"/>
			<point x="164" y="286" type="line"/>
			<point x="308" y="286" type="line" smooth="yes"/>
			<point x="376" y="286"/>
			<point x="407" y="264"/>
			<point x="407" y="211" type="curve" smooth="yes"/>
			<point x="407" y="203" type="line" smooth="yes"/>
			<point x="407" y="153"/>
			<point x="365" y="123"/>
			<point x="285" y="123" type="curve" smooth="yes"/>
			<point x="223" y="123"/>
			<point x="171" y="148"/>
			<point x="129" y="192" type="curve"/>
			<point x="29" y="91" type="line"/>
			<point x="97" y="21"/>
			<point x="183" y="-12"/>
		</contour>
	</outline>
</glyph>
<glyph name="uni04E1" format="2">
	<advance width="501"/>
	<outline>
		<contour>
			<point x="252" y="-199" type="curve" smooth="yes"/>
			<point x="402" y="-199"/>
			<point x="491" y="-114"/>
			<point x="491" y="21" type="curve" smooth="yes"/>
			<point x="491" y="156"/>
			<point x="407" y="226"/>
			<point x="280" y="226" type="curve" smooth="yes"/>
			<point x="249" y="226" type="line"/>
			<point x="284" y="181" type="line"/>
			<point x="284" y="230" type="line"/>
			<point x="460" y="400" type="line"/>
			<point x="460" y="525" type="line"/>
			<point x="67" y="525" type="line"/>
			<point x="67" y="410" type="line"/>
			<point x="227" y="410" type="line"/>
			<point x="320" y="421" type="line"/>
			<point x="320" y="416" type="line"/>
			<point x="124" y="226" type="line"/>
			<point x="124" y="128" type="line"/>
			<point x="241" y="128" type="line" smooth="yes"/>
			<point x="302" y="128"/>
			<point x="342" y="100"/>
			<point x="342" y="43" type="curve" smooth="yes"/>
			<point x="342" y="10" type="line" smooth="yes"/>
			<point x="342" y="-48"/>
			<point x="313" y="-83"/>
			<point x="249" y="-83" type="curve" smooth="yes"/>
			<point x="191" y="-83"/>
			<point x="148" y="-58"/>
			<point x="119" y="-13" type="curve"/>
			<point x="24" y="-93" type="line"/>
			<point x="82" y="-166"/>
			<point x="149" y="-199"/>
		</contour>
	</outline>
</glyph>
<glyph name="uni04E8" format="2">
	<advance width="714"/>
	<anchor x="357" y="0" name="bottom"/>
	<anchor x="357" y="698" name="top"/>
	<outline>
		<contour>
			<point x="357" y="-12" type="curve" smooth="yes"/>
			<point x="542" y="-12"/>
			<point x="664" y="112"/>
			<point x="664" y="349" type="curve" smooth="yes"/>
			<point x="664" y="586"/>
			<point x="542" y="710"/>
			<point x="357" y="710" type="curve" smooth="yes"/>
			<point x="172" y="710"/>
			<point x="50" y="586"/>
			<point x="50" y="349" type="curve" smooth="yes"/>
			<point x="50" y="112"/>
			<point x="172" y="-12"/>
		</contour>
		<contour>
			<point x="357" y="113" type="curve" smooth="yes"/>
			<point x="261" y="113"/>
			<point x="201" y="177"/>
			<point x="201" y="294" type="curve" smooth="yes"/>
			<point x="201" y="326" type="line"/>
			<point x="156" y="285" type="line"/>
			<point x="558" y="285" type="line"/>
			<point x="513" y="326" type="line"/>
			<point x="513" y="296" type="line" smooth="yes"/>
			<point x="513" y="177"/>
			<point x="453" y="113"/>
		</contour>
		<contour>
			<point x="357" y="585" type="curve" smooth="yes"/>
			<point x="453" y="585"/>
			<point x="513" y="523"/>
			<point x="513" y="406" type="curve" smooth="yes"/>
			<point x="513" y="379" type="line"/>
			<point x="558" y="419" type="line"/>
			<point x="156" y="419" type="line"/>
			<point x="201" y="379" type="line"/>
			<point x="201" y="406" type="line" smooth="yes"/>
			<point x="201" y="523"/>
			<point x="261" y="585"/>
		</contour>
	</outline>
</glyph>
<glyph name="uni04F6" format="2">
	<advance width="514"/>
	<outline>
		<contour>
			<point x="77" y="0" type="line"/>
			<point x="199" y="0" type="line"/>
			<point x="199" y="-150" type="line"/>
			<point x="342" y="-150" type="line"/>
			<point x="342" y="135" type="line"/>
			<point x="229" y="135" type="line"/>
			<point x="229" y="563" type="line"/>
			<point x="487" y="563" type="line"/>
			<point x="487" y="698" type="line"/>
			<point x="77" y="698" type="line"/>
		</contour>
	</outline>
</glyph>
<glyph name="uni04F7" format="2">
	<advance width="444"/>
	<outline>
		<contour>
			<point x="69" y="0" type="line"/>
			<point x="173" y="0" type="line"/>
			<point x="173" y="-140" type="line"/>
			<point x="307" y="-140" type="line"/>
			<point x="307" y="115" type="line"/>
			<point x="217" y="115" type="line"/>
			<point x="217" y="410" type="line"/>
			<point x="424" y="410" type="line"/>
			<point x="424" y="525" type="line"/>
			<point x="69" y="525" type="line"/>
		</contour>
	</outline>
</glyph>
